<svg xmlns="http://www.w3.org/2000/svg" xmlns:xlink="http://www.w3.org/1999/xlink" width="480" zoomAndPan="magnify" viewBox="0 0 360 359.999987" height="480" preserveAspectRatio="xMidYMid meet" version="1.0"><defs><clipPath id="0d0a2b83e1"><path d="M 46.664062 46.664062 L 313.335938 46.664062 L 313.335938 313.335938 L 46.664062 313.335938 Z M 46.664062 46.664062 " clip-rule="nonzero"/></clipPath><clipPath id="6d78b53753"><path d="M 180 46.664062 C 106.359375 46.664062 46.664062 106.359375 46.664062 180 C 46.664062 253.640625 106.359375 313.335938 180 313.335938 C 253.640625 313.335938 313.335938 253.640625 313.335938 180 C 313.335938 106.359375 253.640625 46.664062 180 46.664062 Z M 180 46.664062 " clip-rule="nonzero"/></clipPath></defs><g clip-path="url(#0d0a2b83e1)"><g clip-path="url(#6d78b53753)"><path fill="#ffffff" d="M 46.664062 46.664062 L 313.335938 46.664062 L 313.335938 313.335938 L 46.664062 313.335938 Z M 46.664062 46.664062 " fill-opacity="1" fill-rule="nonzero"/></g></g><path fill="#464866" d="M 173.519531 170.28125 C 173.976562 170.640625 174.464844 170.964844 174.976562 171.242188 C 175.488281 171.523438 176.019531 171.761719 176.570312 171.953125 C 177.121094 172.144531 177.683594 172.289062 178.261719 172.382812 C 178.835938 172.480469 179.417969 172.53125 180 172.53125 C 180.582031 172.53125 181.164062 172.480469 181.738281 172.382812 C 182.316406 172.289062 182.878906 172.144531 183.429688 171.953125 C 183.980469 171.761719 184.511719 171.523438 185.023438 171.242188 C 185.535156 170.964844 186.023438 170.640625 186.480469 170.28125 L 237.71875 129.839844 L 247.441406 122.28125 L 112.679688 122.28125 L 124.078125 131.28125 Z M 173.519531 170.28125 " fill-opacity="1" fill-rule="nonzero"/><path fill="#464866" d="M 180 193.558594 C 176.464844 193.550781 173.03125 192.960938 169.699219 191.789062 C 166.367188 190.617188 163.320312 188.925781 160.558594 186.71875 L 92.878906 133.320312 L 92.878906 227.28125 C 92.878906 227.964844 92.949219 228.644531 93.082031 229.316406 C 93.214844 229.988281 93.414062 230.640625 93.675781 231.273438 C 93.9375 231.90625 94.261719 232.507812 94.640625 233.078125 C 95.023438 233.648438 95.457031 234.175781 95.941406 234.660156 C 96.425781 235.144531 96.953125 235.578125 97.523438 235.957031 C 98.089844 236.339844 98.691406 236.660156 99.324219 236.921875 C 99.960938 237.1875 100.613281 237.382812 101.285156 237.519531 C 101.957031 237.652344 102.632812 237.71875 103.320312 237.71875 L 256.679688 237.71875 C 257.367188 237.71875 258.042969 237.652344 258.714844 237.519531 C 259.386719 237.382812 260.039062 237.1875 260.675781 236.921875 C 261.308594 236.660156 261.910156 236.339844 262.476562 235.957031 C 263.046875 235.578125 263.574219 235.144531 264.058594 234.660156 C 264.542969 234.175781 264.976562 233.648438 265.359375 233.078125 C 265.738281 232.507812 266.0625 231.90625 266.324219 231.273438 C 266.585938 230.640625 266.785156 229.988281 266.917969 229.316406 C 267.050781 228.644531 267.121094 227.964844 267.121094 227.28125 L 267.121094 133.320312 L 199.441406 186.71875 C 196.679688 188.925781 193.632812 190.617188 190.300781 191.789062 C 186.96875 192.960938 183.535156 193.550781 180 193.558594 Z M 180 193.558594 " fill-opacity="1" fill-rule="nonzero"/><path fill="#464866" d="M 180 0 C 177.054688 0 174.109375 0.0742188 171.167969 0.21875 C 168.226562 0.363281 165.289062 0.578125 162.355469 0.867188 C 159.425781 1.15625 156.503906 1.515625 153.589844 1.949219 C 150.675781 2.378906 147.773438 2.882812 144.882812 3.457031 C 141.996094 4.035156 139.121094 4.679688 136.261719 5.394531 C 133.40625 6.109375 130.566406 6.894531 127.75 7.75 C 124.929688 8.605469 122.132812 9.53125 119.359375 10.523438 C 116.585938 11.515625 113.839844 12.574219 111.117188 13.703125 C 108.394531 14.828125 105.703125 16.023438 103.039062 17.28125 C 100.378906 18.542969 97.746094 19.867188 95.148438 21.253906 C 92.550781 22.644531 89.988281 24.09375 87.460938 25.609375 C 84.933594 27.125 82.445312 28.699219 79.996094 30.335938 C 77.546875 31.972656 75.140625 33.667969 72.773438 35.421875 C 70.40625 37.175781 68.085938 38.988281 65.808594 40.859375 C 63.53125 42.726562 61.300781 44.652344 59.121094 46.628906 C 56.9375 48.605469 54.804688 50.636719 52.722656 52.722656 C 50.636719 54.804688 48.605469 56.9375 46.628906 59.121094 C 44.652344 61.300781 42.726562 63.53125 40.859375 65.808594 C 38.988281 68.085938 37.175781 70.40625 35.421875 72.773438 C 33.667969 75.140625 31.972656 77.546875 30.335938 79.996094 C 28.699219 82.445312 27.125 84.933594 25.609375 87.460938 C 24.09375 89.988281 22.644531 92.550781 21.253906 95.148438 C 19.867188 97.746094 18.542969 100.378906 17.28125 103.039062 C 16.023438 105.703125 14.828125 108.394531 13.703125 111.117188 C 12.574219 113.839844 11.515625 116.585938 10.523438 119.359375 C 9.53125 122.132812 8.605469 124.929688 7.75 127.75 C 6.894531 130.566406 6.109375 133.40625 5.394531 136.261719 C 4.679688 139.121094 4.035156 141.996094 3.457031 144.882812 C 2.882812 147.773438 2.378906 150.675781 1.949219 153.589844 C 1.515625 156.503906 1.15625 159.425781 0.867188 162.355469 C 0.578125 165.289062 0.363281 168.226562 0.21875 171.167969 C 0.0742188 174.109375 0 177.054688 0 180 C 0 182.945312 0.0742188 185.890625 0.21875 188.832031 C 0.363281 191.773438 0.578125 194.710938 0.867188 197.644531 C 1.15625 200.574219 1.515625 203.496094 1.949219 206.410156 C 2.378906 209.324219 2.882812 212.226562 3.457031 215.117188 C 4.035156 218.003906 4.679688 220.878906 5.394531 223.738281 C 6.109375 226.59375 6.894531 229.433594 7.75 232.25 C 8.605469 235.070312 9.53125 237.867188 10.523438 240.640625 C 11.515625 243.414062 12.574219 246.160156 13.703125 248.882812 C 14.828125 251.605469 16.023438 254.296875 17.28125 256.960938 C 18.542969 259.621094 19.867188 262.253906 21.253906 264.851562 C 22.644531 267.449219 24.09375 270.011719 25.609375 272.539062 C 27.125 275.066406 28.699219 277.554688 30.335938 280.003906 C 31.972656 282.453125 33.667969 284.859375 35.421875 287.226562 C 37.175781 289.59375 38.988281 291.914062 40.859375 294.191406 C 42.726562 296.46875 44.652344 298.699219 46.628906 300.878906 C 48.605469 303.0625 50.636719 305.195312 52.722656 307.277344 C 54.804688 309.363281 56.9375 311.394531 59.121094 313.371094 C 61.300781 315.347656 63.53125 317.273438 65.808594 319.140625 C 68.085938 321.011719 70.40625 322.824219 72.773438 324.578125 C 75.140625 326.332031 77.546875 328.027344 79.996094 329.664062 C 82.445312 331.300781 84.933594 332.875 87.460938 334.390625 C 89.988281 335.90625 92.550781 337.355469 95.148438 338.746094 C 97.746094 340.132812 100.378906 341.457031 103.039062 342.71875 C 105.703125 343.976562 108.394531 345.171875 111.117188 346.296875 C 113.839844 347.425781 116.585938 348.484375 119.359375 349.476562 C 122.132812 350.46875 124.929688 351.394531 127.75 352.25 C 130.566406 353.105469 133.40625 353.890625 136.261719 354.605469 C 139.121094 355.320312 141.996094 355.964844 144.882812 356.542969 C 147.773438 357.117188 150.675781 357.621094 153.589844 358.050781 C 156.503906 358.484375 159.425781 358.84375 162.355469 359.132812 C 165.289062 359.421875 168.226562 359.636719 171.167969 359.78125 C 174.109375 359.925781 177.054688 360 180 360 C 182.945312 360 185.890625 359.925781 188.832031 359.78125 C 191.773438 359.636719 194.710938 359.421875 197.644531 359.132812 C 200.574219 358.84375 203.496094 358.484375 206.410156 358.050781 C 209.324219 357.621094 212.226562 357.117188 215.117188 356.542969 C 218.003906 355.964844 220.878906 355.320312 223.738281 354.605469 C 226.59375 353.890625 229.433594 353.105469 232.25 352.25 C 235.070312 351.394531 237.867188 350.46875 240.640625 349.476562 C 243.414062 348.484375 246.160156 347.425781 248.882812 346.296875 C 251.605469 345.171875 254.296875 343.976562 256.960938 342.71875 C 259.621094 341.457031 262.253906 340.132812 264.851562 338.746094 C 267.449219 337.355469 270.011719 335.90625 272.539062 334.390625 C 275.066406 332.875 277.554688 331.300781 280.003906 329.664062 C 282.453125 328.027344 284.859375 326.332031 287.226562 324.578125 C 289.59375 322.824219 291.914062 321.011719 294.191406 319.140625 C 296.46875 317.273438 298.699219 315.347656 300.878906 313.371094 C 303.0625 311.394531 305.195312 309.363281 307.277344 307.277344 C 309.363281 305.195312 311.394531 303.0625 313.371094 300.878906 C 315.347656 298.699219 317.273438 296.46875 319.140625 294.191406 C 321.011719 291.914062 322.824219 289.59375 324.578125 287.226562 C 326.332031 284.859375 328.027344 282.453125 329.664062 280.003906 C 331.300781 277.554688 332.875 275.066406 334.390625 272.539062 C 335.90625 270.011719 337.355469 267.449219 338.746094 264.851562 C 340.132812 262.253906 341.457031 259.621094 342.71875 256.960938 C 343.976562 254.296875 345.171875 251.605469 346.296875 248.882812 C 347.425781 246.160156 348.484375 243.414062 349.476562 240.640625 C 350.46875 237.867188 351.394531 235.070312 352.25 232.25 C 353.105469 229.433594 353.890625 226.59375 354.605469 223.738281 C 355.320312 220.878906 355.964844 218.003906 356.542969 215.117188 C 357.117188 212.226562 357.621094 209.324219 358.050781 206.410156 C 358.484375 203.496094 358.84375 200.574219 359.132812 197.644531 C 359.421875 194.710938 359.636719 191.773438 359.78125 188.832031 C 359.925781 185.890625 360 182.945312 360 180 C 360 177.054688 359.925781 174.109375 359.78125 171.167969 C 359.632812 168.226562 359.417969 165.289062 359.128906 162.359375 C 358.835938 159.425781 358.476562 156.503906 358.042969 153.589844 C 357.609375 150.679688 357.105469 147.777344 356.53125 144.886719 C 355.957031 142 355.308594 139.125 354.59375 136.269531 C 353.875 133.414062 353.089844 130.574219 352.234375 127.757812 C 351.378906 124.9375 350.453125 122.140625 349.460938 119.367188 C 348.46875 116.59375 347.410156 113.847656 346.28125 111.128906 C 345.152344 108.40625 343.960938 105.714844 342.699219 103.050781 C 341.441406 100.390625 340.117188 97.757812 338.726562 95.160156 C 337.335938 92.5625 335.886719 90.003906 334.371094 87.476562 C 332.855469 84.949219 331.28125 82.460938 329.644531 80.011719 C 328.007812 77.5625 326.3125 75.15625 324.558594 72.789062 C 322.800781 70.425781 320.992188 68.105469 319.121094 65.828125 C 317.253906 63.550781 315.328125 61.320312 313.351562 59.136719 C 311.375 56.957031 309.34375 54.824219 307.261719 52.738281 C 305.175781 50.65625 303.042969 48.625 300.863281 46.648438 C 298.679688 44.671875 296.449219 42.746094 294.171875 40.878906 C 291.894531 39.007812 289.574219 37.199219 287.210938 35.441406 C 284.84375 33.6875 282.4375 31.992188 279.988281 30.355469 C 277.539062 28.71875 275.050781 27.144531 272.523438 25.628906 C 269.996094 24.113281 267.4375 22.664062 264.839844 21.273438 C 262.242188 19.882812 259.609375 18.558594 256.949219 17.300781 C 254.285156 16.039062 251.59375 14.847656 248.871094 13.71875 C 246.152344 12.589844 243.40625 11.53125 240.632812 10.539062 C 237.859375 9.546875 235.0625 8.621094 232.242188 7.765625 C 229.425781 6.910156 226.585938 6.125 223.730469 5.40625 C 220.875 4.691406 218 4.042969 215.113281 3.46875 C 212.222656 2.894531 209.320312 2.390625 206.410156 1.957031 C 203.496094 1.523438 200.574219 1.164062 197.640625 0.871094 C 194.710938 0.582031 191.773438 0.367188 188.832031 0.21875 C 185.890625 0.0742188 182.945312 0 180 0 Z M 288 227.28125 C 288 228.308594 287.949219 229.332031 287.847656 230.355469 C 287.75 231.375 287.597656 232.390625 287.398438 233.398438 C 287.199219 234.40625 286.949219 235.402344 286.652344 236.382812 C 286.355469 237.367188 286.007812 238.332031 285.617188 239.28125 C 285.226562 240.234375 284.785156 241.160156 284.304688 242.066406 C 283.820312 242.972656 283.292969 243.855469 282.726562 244.707031 C 282.15625 245.5625 281.546875 246.386719 280.894531 247.183594 C 280.246094 247.980469 279.558594 248.738281 278.832031 249.46875 C 278.109375 250.195312 277.347656 250.886719 276.554688 251.539062 C 275.761719 252.191406 274.941406 252.804688 274.089844 253.378906 C 273.234375 253.949219 272.355469 254.480469 271.453125 254.96875 C 270.546875 255.453125 269.621094 255.894531 268.675781 256.292969 C 267.726562 256.6875 266.761719 257.035156 265.777344 257.335938 C 264.796875 257.636719 263.804688 257.890625 262.796875 258.09375 C 261.789062 258.296875 260.773438 258.453125 259.753906 258.558594 C 258.730469 258.660156 257.707031 258.714844 256.679688 258.71875 L 103.320312 258.71875 C 102.292969 258.714844 101.269531 258.660156 100.246094 258.558594 C 99.226562 258.453125 98.210938 258.296875 97.203125 258.09375 C 96.195312 257.890625 95.203125 257.636719 94.222656 257.335938 C 93.238281 257.035156 92.273438 256.6875 91.324219 256.292969 C 90.378906 255.894531 89.453125 255.453125 88.546875 254.96875 C 87.644531 254.480469 86.765625 253.949219 85.910156 253.378906 C 85.058594 252.804688 84.238281 252.191406 83.445312 251.539062 C 82.652344 250.886719 81.890625 250.195312 81.167969 249.46875 C 80.441406 248.738281 79.753906 247.980469 79.105469 247.183594 C 78.453125 246.386719 77.84375 245.5625 77.273438 244.707031 C 76.707031 243.855469 76.179688 242.972656 75.695312 242.066406 C 75.214844 241.160156 74.773438 240.234375 74.382812 239.28125 C 73.992188 238.332031 73.644531 237.367188 73.347656 236.382812 C 73.050781 235.402344 72.800781 234.40625 72.601562 233.398438 C 72.402344 232.390625 72.25 231.375 72.152344 230.355469 C 72.050781 229.332031 72 228.308594 72 227.28125 L 72 132.71875 C 72 131.691406 72.050781 130.667969 72.152344 129.644531 C 72.25 128.625 72.402344 127.609375 72.601562 126.601562 C 72.800781 125.59375 73.050781 124.597656 73.347656 123.617188 C 73.644531 122.632812 73.992188 121.667969 74.382812 120.71875 C 74.773438 119.765625 75.214844 118.839844 75.695312 117.933594 C 76.179688 117.027344 76.707031 116.144531 77.273438 115.292969 C 77.84375 114.4375 78.453125 113.613281 79.105469 112.816406 C 79.753906 112.019531 80.441406 111.261719 81.167969 110.53125 C 81.890625 109.804688 82.652344 109.113281 83.445312 108.460938 C 84.238281 107.808594 85.058594 107.195312 85.910156 106.621094 C 86.765625 106.050781 87.644531 105.519531 88.546875 105.03125 C 89.453125 104.546875 90.378906 104.105469 91.324219 103.707031 C 92.273438 103.3125 93.238281 102.964844 94.222656 102.664062 C 95.203125 102.363281 96.195312 102.109375 97.203125 101.90625 C 98.210938 101.703125 99.226562 101.546875 100.246094 101.441406 C 101.269531 101.339844 102.292969 101.285156 103.320312 101.28125 L 256.679688 101.28125 C 257.707031 101.285156 258.730469 101.339844 259.753906 101.441406 C 260.773438 101.546875 261.789062 101.703125 262.796875 101.90625 C 263.804688 102.109375 264.796875 102.363281 265.78125 102.664062 C 266.761719 102.964844 267.726562 103.3125 268.675781 103.707031 C 269.621094 104.105469 270.546875 104.546875 271.453125 105.03125 C 272.355469 105.519531 273.234375 106.050781 274.089844 106.621094 C 274.941406 107.195312 275.761719 107.808594 276.554688 108.460938 C 277.347656 109.113281 278.109375 109.804688 278.832031 110.53125 C 279.558594 111.261719 280.246094 112.019531 280.894531 112.816406 C 281.546875 113.613281 282.15625 114.4375 282.726562 115.292969 C 283.292969 116.144531 283.820312 117.027344 284.304688 117.933594 C 284.785156 118.839844 285.226562 119.765625 285.617188 120.71875 C 286.007812 121.667969 286.355469 122.632812 286.652344 123.617188 C 286.949219 124.597656 287.199219 125.59375 287.398438 126.601562 C 287.597656 127.609375 287.75 128.625 287.847656 129.644531 C 287.949219 130.667969 288 131.691406 288 132.71875 Z M 288 227.28125 " fill-opacity="1" fill-rule="nonzero"/></svg>