<svg xmlns="http://www.w3.org/2000/svg" xmlns:xlink="http://www.w3.org/1999/xlink" width="480" zoomAndPan="magnify" viewBox="0 0 360 359.999987" height="480" preserveAspectRatio="xMidYMid meet" version="1.0"><defs><clipPath id="207d9c2e68"><path d="M 36 52 L 292.46875 52 L 292.46875 310.464844 L 36 310.464844 Z M 36 52 " clip-rule="nonzero"/></clipPath></defs><path fill="#464866" d="M 360 180 C 360 182.945312 359.925781 185.890625 359.78125 188.832031 C 359.636719 191.773438 359.421875 194.710938 359.132812 197.644531 C 358.84375 200.574219 358.484375 203.496094 358.050781 206.410156 C 357.621094 209.324219 357.117188 212.226562 356.542969 215.117188 C 355.964844 218.003906 355.320312 220.878906 354.605469 223.738281 C 353.890625 226.59375 353.105469 229.433594 352.25 232.25 C 351.394531 235.070312 350.46875 237.867188 349.476562 240.640625 C 348.484375 243.414062 347.425781 246.160156 346.296875 248.882812 C 345.171875 251.605469 343.976562 254.296875 342.71875 256.960938 C 341.457031 259.621094 340.132812 262.253906 338.746094 264.851562 C 337.355469 267.449219 335.90625 270.011719 334.390625 272.539062 C 332.875 275.066406 331.300781 277.554688 329.664062 280.003906 C 328.027344 282.453125 326.332031 284.859375 324.578125 287.226562 C 322.824219 289.59375 321.011719 291.914062 319.140625 294.191406 C 317.273438 296.46875 315.347656 298.699219 313.371094 300.878906 C 311.394531 303.0625 309.363281 305.195312 307.277344 307.277344 C 305.195312 309.363281 303.0625 311.394531 300.878906 313.371094 C 298.699219 315.347656 296.46875 317.273438 294.191406 319.140625 C 291.914062 321.011719 289.59375 322.824219 287.226562 324.578125 C 284.859375 326.332031 282.453125 328.027344 280.003906 329.664062 C 277.554688 331.300781 275.066406 332.875 272.539062 334.390625 C 270.011719 335.90625 267.449219 337.355469 264.851562 338.746094 C 262.253906 340.132812 259.621094 341.457031 256.960938 342.71875 C 254.296875 343.976562 251.605469 345.171875 248.882812 346.296875 C 246.160156 347.425781 243.414062 348.484375 240.640625 349.476562 C 237.867188 350.46875 235.070312 351.394531 232.25 352.25 C 229.433594 353.105469 226.59375 353.890625 223.738281 354.605469 C 220.878906 355.320312 218.003906 355.964844 215.117188 356.542969 C 212.226562 357.117188 209.324219 357.621094 206.410156 358.050781 C 203.496094 358.484375 200.574219 358.84375 197.644531 359.132812 C 194.710938 359.421875 191.773438 359.636719 188.832031 359.78125 C 185.890625 359.925781 182.945312 360 180 360 C 177.054688 360 174.109375 359.925781 171.167969 359.78125 C 168.226562 359.636719 165.289062 359.421875 162.355469 359.132812 C 159.425781 358.84375 156.503906 358.484375 153.589844 358.050781 C 150.675781 357.621094 147.773438 357.117188 144.882812 356.542969 C 141.996094 355.964844 139.121094 355.320312 136.261719 354.605469 C 133.40625 353.890625 130.566406 353.105469 127.75 352.25 C 124.929688 351.394531 122.132812 350.46875 119.359375 349.476562 C 116.585938 348.484375 113.839844 347.425781 111.117188 346.296875 C 108.394531 345.171875 105.703125 343.976562 103.039062 342.71875 C 100.378906 341.457031 97.746094 340.132812 95.148438 338.746094 C 92.550781 337.355469 89.988281 335.90625 87.460938 334.390625 C 84.933594 332.875 82.445312 331.300781 79.996094 329.664062 C 77.546875 328.027344 75.140625 326.332031 72.773438 324.578125 C 70.40625 322.824219 68.085938 321.011719 65.808594 319.140625 C 63.53125 317.273438 61.300781 315.347656 59.121094 313.371094 C 56.9375 311.394531 54.804688 309.363281 52.722656 307.277344 C 50.636719 305.195312 48.605469 303.0625 46.628906 300.878906 C 44.652344 298.699219 42.726562 296.46875 40.859375 294.191406 C 38.988281 291.914062 37.175781 289.59375 35.421875 287.226562 C 33.667969 284.859375 31.972656 282.453125 30.335938 280.003906 C 28.699219 277.554688 27.125 275.066406 25.609375 272.539062 C 24.09375 270.011719 22.644531 267.449219 21.253906 264.851562 C 19.867188 262.253906 18.542969 259.621094 17.28125 256.960938 C 16.023438 254.296875 14.828125 251.605469 13.703125 248.882812 C 12.574219 246.160156 11.515625 243.414062 10.523438 240.640625 C 9.53125 237.867188 8.605469 235.070312 7.75 232.25 C 6.894531 229.433594 6.109375 226.59375 5.394531 223.738281 C 4.679688 220.878906 4.035156 218.003906 3.457031 215.117188 C 2.882812 212.226562 2.378906 209.324219 1.949219 206.410156 C 1.515625 203.496094 1.15625 200.574219 0.867188 197.644531 C 0.578125 194.710938 0.363281 191.773438 0.21875 188.832031 C 0.0742188 185.890625 0 182.945312 0 180 C 0 177.054688 0.0742188 174.109375 0.21875 171.167969 C 0.363281 168.226562 0.578125 165.289062 0.867188 162.355469 C 1.15625 159.425781 1.515625 156.503906 1.949219 153.589844 C 2.378906 150.675781 2.882812 147.773438 3.457031 144.882812 C 4.035156 141.996094 4.679688 139.121094 5.394531 136.261719 C 6.109375 133.40625 6.894531 130.566406 7.75 127.75 C 8.605469 124.929688 9.53125 122.132812 10.523438 119.359375 C 11.515625 116.585938 12.574219 113.839844 13.703125 111.117188 C 14.828125 108.394531 16.023438 105.703125 17.28125 103.039062 C 18.542969 100.378906 19.867188 97.746094 21.253906 95.148438 C 22.644531 92.550781 24.09375 89.988281 25.609375 87.460938 C 27.125 84.933594 28.699219 82.445312 30.335938 79.996094 C 31.972656 77.546875 33.667969 75.140625 35.421875 72.773438 C 37.175781 70.40625 38.988281 68.085938 40.859375 65.808594 C 42.726562 63.53125 44.652344 61.300781 46.628906 59.121094 C 48.605469 56.9375 50.636719 54.804688 52.722656 52.722656 C 54.804688 50.636719 56.9375 48.605469 59.121094 46.628906 C 61.300781 44.652344 63.53125 42.726562 65.808594 40.859375 C 68.085938 38.988281 70.40625 37.175781 72.773438 35.421875 C 75.140625 33.667969 77.546875 31.972656 79.996094 30.335938 C 82.445312 28.699219 84.933594 27.125 87.460938 25.609375 C 89.988281 24.09375 92.550781 22.644531 95.148438 21.253906 C 97.746094 19.867188 100.378906 18.542969 103.039062 17.28125 C 105.703125 16.023438 108.394531 14.828125 111.117188 13.703125 C 113.839844 12.574219 116.585938 11.515625 119.359375 10.523438 C 122.132812 9.53125 124.929688 8.605469 127.75 7.75 C 130.566406 6.894531 133.40625 6.109375 136.261719 5.394531 C 139.121094 4.679688 141.996094 4.035156 144.882812 3.457031 C 147.773438 2.882812 150.675781 2.378906 153.589844 1.949219 C 156.503906 1.515625 159.425781 1.15625 162.355469 0.867188 C 165.289062 0.578125 168.226562 0.363281 171.167969 0.21875 C 174.109375 0.0742188 177.054688 0 180 0 C 182.945312 0 185.890625 0.0742188 188.832031 0.21875 C 191.773438 0.363281 194.710938 0.578125 197.644531 0.867188 C 200.574219 1.15625 203.496094 1.515625 206.410156 1.949219 C 209.324219 2.378906 212.226562 2.882812 215.117188 3.457031 C 218.003906 4.035156 220.878906 4.679688 223.738281 5.394531 C 226.59375 6.109375 229.433594 6.894531 232.25 7.75 C 235.070312 8.605469 237.867188 9.53125 240.640625 10.523438 C 243.414062 11.515625 246.160156 12.574219 248.882812 13.703125 C 251.605469 14.828125 254.296875 16.023438 256.960938 17.28125 C 259.621094 18.542969 262.253906 19.867188 264.851562 21.253906 C 267.449219 22.644531 270.011719 24.09375 272.539062 25.609375 C 275.066406 27.125 277.554688 28.699219 280.003906 30.335938 C 282.453125 31.972656 284.859375 33.667969 287.226562 35.421875 C 289.59375 37.175781 291.914062 38.988281 294.191406 40.859375 C 296.46875 42.726562 298.699219 44.652344 300.878906 46.628906 C 303.0625 48.605469 305.195312 50.636719 307.277344 52.722656 C 309.363281 54.804688 311.394531 56.9375 313.371094 59.121094 C 315.347656 61.300781 317.273438 63.53125 319.140625 65.808594 C 321.011719 68.085938 322.824219 70.40625 324.578125 72.773438 C 326.332031 75.140625 328.027344 77.546875 329.664062 79.996094 C 331.300781 82.445312 332.875 84.933594 334.390625 87.460938 C 335.90625 89.988281 337.355469 92.550781 338.746094 95.148438 C 340.132812 97.746094 341.457031 100.378906 342.71875 103.039062 C 343.976562 105.703125 345.171875 108.394531 346.296875 111.117188 C 347.425781 113.839844 348.484375 116.585938 349.476562 119.359375 C 350.46875 122.132812 351.394531 124.929688 352.25 127.75 C 353.105469 130.566406 353.890625 133.40625 354.605469 136.261719 C 355.320312 139.121094 355.964844 141.996094 356.542969 144.882812 C 357.117188 147.773438 357.621094 150.675781 358.050781 153.589844 C 358.484375 156.503906 358.84375 159.425781 359.132812 162.355469 C 359.421875 165.289062 359.636719 168.226562 359.78125 171.167969 C 359.925781 174.109375 360 177.054688 360 180 Z M 360 180 " fill-opacity="1" fill-rule="nonzero"/><g clip-path="url(#207d9c2e68)"><path fill="#ffffff" d="M 220.359375 310.128906 C 219.515625 310.128906 218.675781 310.046875 217.847656 309.882812 C 217.015625 309.714844 216.210938 309.472656 215.429688 309.148438 C 214.648438 308.824219 213.90625 308.425781 213.203125 307.957031 C 212.5 307.488281 211.847656 306.953125 211.25 306.355469 C 210.652344 305.757812 210.117188 305.105469 209.648438 304.402344 C 209.175781 303.699219 208.78125 302.957031 208.457031 302.175781 C 208.132812 301.394531 207.890625 300.585938 207.722656 299.757812 C 207.558594 298.929688 207.476562 298.089844 207.476562 297.242188 L 207.476562 263.742188 C 207.675781 261.816406 207.675781 259.890625 207.46875 257.964844 C 207.265625 256.039062 206.863281 254.152344 206.265625 252.3125 C 205.667969 250.46875 204.882812 248.710938 203.914062 247.03125 C 202.945312 245.355469 201.8125 243.796875 200.519531 242.355469 C 199.714844 241.484375 199.046875 240.523438 198.507812 239.46875 C 197.972656 238.414062 197.589844 237.308594 197.355469 236.148438 C 197.125 234.988281 197.054688 233.816406 197.144531 232.636719 C 197.234375 231.457031 197.484375 230.3125 197.886719 229.199219 C 198.292969 228.089844 198.84375 227.054688 199.535156 226.09375 C 200.226562 225.132812 201.035156 224.285156 201.960938 223.546875 C 202.882812 222.808594 203.890625 222.210938 204.980469 221.75 C 206.070312 221.289062 207.203125 220.984375 208.378906 220.835938 C 239.816406 217.101562 268.808594 207.050781 268.808594 152.546875 C 268.8125 147.460938 268.078125 142.480469 266.609375 137.605469 C 265.140625 132.734375 262.996094 128.179688 260.175781 123.945312 C 258.886719 122.011719 257.796875 119.976562 256.910156 117.828125 C 256.023438 115.683594 255.351562 113.472656 254.898438 111.195312 C 254.445312 108.921875 254.21875 106.621094 254.21875 104.300781 C 254.214844 101.976562 254.441406 99.679688 254.890625 97.402344 C 256.0625 91.34375 256.0625 85.289062 254.890625 79.234375 C 245.1875 82.515625 236.210938 87.195312 227.964844 93.277344 C 227.1875 93.828125 226.363281 94.289062 225.484375 94.65625 C 224.609375 95.023438 223.703125 95.289062 222.769531 95.457031 C 221.832031 95.625 220.890625 95.6875 219.941406 95.644531 C 218.992188 95.605469 218.058594 95.460938 217.140625 95.210938 C 211.355469 93.574219 205.484375 92.347656 199.527344 91.519531 C 193.574219 90.695312 187.589844 90.28125 181.578125 90.28125 C 175.566406 90.28125 169.582031 90.695312 163.625 91.519531 C 157.671875 92.347656 151.800781 93.574219 146.015625 95.210938 C 145.097656 95.460938 144.164062 95.605469 143.214844 95.644531 C 142.265625 95.6875 141.324219 95.625 140.386719 95.457031 C 139.453125 95.289062 138.546875 95.023438 137.667969 94.65625 C 136.792969 94.289062 135.96875 93.828125 135.191406 93.277344 C 126.890625 87.125 117.828125 82.441406 108.003906 79.234375 C 106.769531 85.289062 106.769531 91.34375 108.003906 97.402344 C 108.425781 99.707031 108.617188 102.035156 108.589844 104.378906 C 108.5625 106.722656 108.308594 109.042969 107.835938 111.339844 C 107.359375 113.636719 106.671875 115.863281 105.769531 118.027344 C 104.863281 120.191406 103.765625 122.25 102.464844 124.203125 C 99.65625 128.46875 97.519531 133.046875 96.050781 137.9375 C 94.582031 142.828125 93.839844 147.828125 93.832031 152.933594 C 93.832031 203.054688 118.054688 216.457031 154.390625 221.09375 C 155.578125 221.242188 156.726562 221.550781 157.828125 222.015625 C 158.933594 222.484375 159.949219 223.09375 160.882812 223.84375 C 161.816406 224.59375 162.628906 225.460938 163.320312 226.4375 C 164.011719 227.414062 164.558594 228.46875 164.957031 229.597656 C 165.332031 230.695312 165.554688 231.820312 165.625 232.976562 C 165.695312 234.132812 165.613281 235.28125 165.375 236.414062 C 165.136719 237.546875 164.75 238.628906 164.222656 239.660156 C 163.691406 240.6875 163.035156 241.628906 162.25 242.484375 C 160.996094 243.824219 159.894531 245.277344 158.945312 246.84375 C 157.992188 248.414062 157.210938 250.0625 156.601562 251.792969 C 155.992188 253.519531 155.566406 255.296875 155.324219 257.113281 C 155.082031 258.929688 155.027344 260.753906 155.164062 262.585938 L 155.164062 297.242188 C 155.164062 298.089844 155.082031 298.929688 154.917969 299.757812 C 154.75 300.585938 154.507812 301.394531 154.183594 302.175781 C 153.859375 302.957031 153.460938 303.699219 152.992188 304.402344 C 152.523438 305.105469 151.988281 305.757812 151.390625 306.355469 C 150.792969 306.953125 150.140625 307.488281 149.4375 307.957031 C 148.734375 308.425781 147.992188 308.824219 147.210938 309.148438 C 146.429688 309.472656 145.621094 309.714844 144.792969 309.882812 C 143.964844 310.046875 143.125 310.128906 142.277344 310.128906 C 141.433594 310.128906 140.59375 310.046875 139.765625 309.882812 C 138.9375 309.714844 138.128906 309.472656 137.347656 309.148438 C 136.566406 308.824219 135.824219 308.425781 135.121094 307.957031 C 134.417969 307.488281 133.765625 306.953125 133.167969 306.355469 C 132.570312 305.757812 132.035156 305.105469 131.566406 304.402344 C 131.097656 303.699219 130.699219 302.957031 130.375 302.175781 C 130.050781 301.394531 129.808594 300.585938 129.640625 299.757812 C 129.476562 298.929688 129.394531 298.089844 129.394531 297.242188 L 129.394531 289.898438 C 126.242188 290.261719 123.078125 290.429688 119.902344 290.402344 C 116.730469 290.375 113.570312 290.15625 110.421875 289.738281 C 107.277344 289.320312 104.167969 288.714844 101.09375 287.914062 C 98.023438 287.117188 95.011719 286.132812 92.0625 284.960938 C 89.113281 283.789062 86.242188 282.445312 83.460938 280.921875 C 80.675781 279.398438 77.992188 277.710938 75.417969 275.855469 C 72.839844 274.003906 70.386719 271.996094 68.058594 269.84375 C 65.726562 267.6875 63.539062 265.394531 61.492188 262.96875 C 57.226562 258.246094 52.246094 254.464844 46.546875 251.632812 C 45.722656 251.421875 44.933594 251.132812 44.167969 250.765625 C 43.40625 250.398438 42.683594 249.957031 42.007812 249.449219 C 41.328125 248.9375 40.707031 248.367188 40.140625 247.738281 C 39.578125 247.105469 39.078125 246.425781 38.648438 245.695312 C 38.21875 244.964844 37.863281 244.199219 37.582031 243.398438 C 37.300781 242.597656 37.101562 241.78125 36.984375 240.941406 C 36.863281 240.101562 36.828125 239.257812 36.875 238.414062 C 36.921875 237.566406 37.050781 236.730469 37.265625 235.910156 C 37.476562 235.089844 37.765625 234.296875 38.132812 233.535156 C 38.5 232.769531 38.9375 232.050781 39.449219 231.371094 C 39.957031 230.695312 40.527344 230.074219 41.160156 229.507812 C 41.792969 228.945312 42.472656 228.445312 43.203125 228.015625 C 43.933594 227.585938 44.699219 227.230469 45.5 226.949219 C 46.300781 226.671875 47.121094 226.472656 47.957031 226.351562 C 48.796875 226.234375 49.640625 226.199219 50.488281 226.246094 C 51.332031 226.292969 52.167969 226.421875 52.988281 226.636719 C 57.945312 228.441406 62.601562 230.828125 66.964844 233.792969 C 71.324219 236.757812 75.257812 240.214844 78.757812 244.160156 C 91.640625 257.042969 104.527344 268.382812 129.007812 263.742188 C 128.574219 256.75 129.5625 249.964844 131.972656 243.386719 C 105.429688 236.6875 67.546875 217.617188 67.546875 153.191406 C 67.539062 149.398438 67.808594 145.625 68.355469 141.867188 C 68.902344 138.113281 69.722656 134.417969 70.8125 130.785156 C 71.90625 127.152344 73.257812 123.617188 74.867188 120.183594 C 76.480469 116.746094 78.335938 113.449219 80.433594 110.285156 C 81.214844 109.113281 81.753906 107.835938 82.042969 106.453125 C 82.332031 105.074219 82.351562 103.6875 82.105469 102.296875 C 81.460938 98.839844 81.0625 95.351562 80.917969 91.835938 C 80.773438 88.320312 80.878906 84.808594 81.238281 81.308594 C 81.601562 77.808594 82.207031 74.351562 83.066406 70.9375 C 83.925781 67.527344 85.023438 64.191406 86.359375 60.9375 C 86.726562 60.066406 87.179688 59.242188 87.726562 58.46875 C 88.273438 57.699219 88.898438 56.996094 89.597656 56.359375 C 90.300781 55.726562 91.0625 55.175781 91.886719 54.707031 C 92.707031 54.242188 93.570312 53.871094 94.476562 53.59375 C 98.859375 52.304688 114.578125 49.726562 144.339844 69.054688 C 150.34375 67.609375 156.410156 66.523438 162.539062 65.796875 C 168.671875 65.070312 174.824219 64.707031 180.996094 64.707031 C 187.171875 64.707031 193.324219 65.070312 199.453125 65.796875 C 205.585938 66.523438 211.652344 67.609375 217.65625 69.054688 C 247.417969 49.726562 263.136719 52.175781 267.390625 53.59375 C 268.292969 53.871094 269.160156 54.242188 269.980469 54.707031 C 270.804688 55.175781 271.566406 55.726562 272.269531 56.359375 C 272.96875 56.996094 273.59375 57.699219 274.140625 58.46875 C 274.6875 59.242188 275.140625 60.066406 275.507812 60.9375 C 276.847656 64.203125 277.949219 67.546875 278.808594 70.972656 C 279.664062 74.394531 280.273438 77.863281 280.636719 81.375 C 280.996094 84.886719 281.101562 88.40625 280.953125 91.933594 C 280.808594 95.457031 280.410156 98.957031 279.757812 102.425781 C 279.492188 103.695312 279.484375 104.96875 279.730469 106.242188 C 279.976562 107.515625 280.457031 108.691406 281.175781 109.769531 C 283.28125 112.941406 285.140625 116.25 286.753906 119.695312 C 288.371094 123.140625 289.722656 126.6875 290.8125 130.332031 C 291.90625 133.976562 292.722656 137.683594 293.265625 141.449219 C 293.8125 145.214844 294.078125 149 294.0625 152.804688 C 294.0625 218.132812 256.4375 237.070312 229.636719 243 C 232.023438 249.980469 232.96875 257.15625 232.472656 264.515625 L 232.472656 297.242188 C 232.472656 298.058594 232.398438 298.867188 232.246094 299.667969 C 232.09375 300.464844 231.871094 301.246094 231.570312 302.003906 C 231.273438 302.761719 230.902344 303.484375 230.46875 304.171875 C 230.03125 304.859375 229.535156 305.5 228.976562 306.09375 C 228.417969 306.6875 227.808594 307.222656 227.148438 307.699219 C 226.492188 308.175781 225.792969 308.589844 225.054688 308.933594 C 224.316406 309.28125 223.554688 309.554688 222.765625 309.753906 C 221.976562 309.957031 221.175781 310.078125 220.359375 310.128906 Z M 220.359375 310.128906 " fill-opacity="1" fill-rule="nonzero"/></g></svg>