<svg xmlns="http://www.w3.org/2000/svg" xmlns:xlink="http://www.w3.org/1999/xlink" width="480" zoomAndPan="magnify" viewBox="0 0 360 359.999987" height="480" preserveAspectRatio="xMidYMid meet" version="1.0"><defs><clipPath id="80f5a8d932"><path d="M 24.484375 24.484375 L 335.515625 24.484375 L 335.515625 335.515625 L 24.484375 335.515625 Z M 24.484375 24.484375 " clip-rule="nonzero"/></clipPath><clipPath id="4bb8d5240c"><path d="M 180 24.484375 C 94.109375 24.484375 24.484375 94.109375 24.484375 180 C 24.484375 265.890625 94.109375 335.515625 180 335.515625 C 265.890625 335.515625 335.515625 265.890625 335.515625 180 C 335.515625 94.109375 265.890625 24.484375 180 24.484375 Z M 180 24.484375 " clip-rule="nonzero"/></clipPath></defs><g clip-path="url(#80f5a8d932)"><g clip-path="url(#4bb8d5240c)"><path fill="#ffffff" d="M 24.484375 24.484375 L 335.515625 24.484375 L 335.515625 335.515625 L 24.484375 335.515625 Z M 24.484375 24.484375 " fill-opacity="1" fill-rule="nonzero"/></g></g><path fill="#464866" d="M 276.40625 195.664062 C 276.285156 195.675781 276.160156 195.675781 276.039062 195.675781 C 272.816406 195.675781 270.113281 193.160156 269.921875 189.902344 C 268.445312 164.976562 258.179688 141.285156 241.035156 123.1875 C 223.878906 105.09375 200.765625 93.578125 175.953125 90.773438 C 172.585938 90.390625 170.167969 87.351562 170.550781 83.984375 C 170.929688 80.617188 173.980469 78.179688 177.335938 78.578125 C 205.019531 81.707031 230.800781 94.554688 249.9375 114.742188 C 269.078125 134.933594 280.523438 161.371094 282.171875 189.179688 C 282.371094 192.5625 279.789062 195.46875 276.40625 195.664062 Z M 174.3125 122.871094 C 174.695312 119.507812 177.71875 117.101562 181.105469 117.464844 C 197.585938 119.332031 212.945312 126.984375 224.339844 139.007812 C 235.738281 151.035156 242.558594 166.773438 243.539062 183.335938 C 243.738281 186.71875 241.15625 189.625 237.773438 189.820312 C 237.652344 189.832031 237.527344 189.832031 237.40625 189.832031 C 234.183594 189.832031 231.476562 187.324219 231.289062 184.0625 C 230.476562 170.382812 224.84375 157.382812 215.433594 147.453125 C 206.027344 137.523438 193.339844 131.203125 179.71875 129.65625 C 176.355469 129.28125 173.9375 126.238281 174.3125 122.871094 Z M 266.53125 274.820312 C 266.351562 275.007812 259.226562 281.738281 259.03125 281.925781 C 245.839844 294.613281 225.105469 297.132812 207.898438 293.101562 C 201.613281 291.632812 195.496094 289.519531 189.578125 286.949219 C 162.882812 275.347656 137.558594 254.828125 117.21875 233.246094 C 96.753906 211.777344 77.617188 185.394531 67.464844 158.117188 C 65.214844 152.066406 63.433594 145.84375 62.296875 139.492188 C 59.191406 122.09375 62.816406 101.527344 76.191406 89.03125 C 76.390625 88.84375 83.496094 82.09375 83.691406 81.917969 C 96.945312 70.28125 108.273438 85.042969 118.835938 96.386719 C 127.859375 106.074219 143.019531 122.023438 140.5 136.589844 C 139.105469 144.679688 130.511719 150.59375 127.527344 158.527344 C 123.71875 168.644531 125.515625 178.722656 131.902344 187.378906 C 136.179688 193.167969 141.390625 199.339844 146.949219 205.0625 C 152.371094 210.917969 158.25 216.457031 163.804688 221.035156 C 172.105469 227.875 182.070312 230.214844 192.382812 226.949219 C 200.460938 224.390625 206.824219 216.128906 214.980469 215.164062 C 229.65625 213.425781 244.777344 229.425781 253.964844 238.953125 C 264.726562 250.109375 278.863281 262.203125 266.53125 274.820312 Z M 179.996094 -0.0585938 C 80.59375 -0.0585938 0.0078125 80.527344 0.0078125 179.9375 C 0.0078125 279.339844 80.59375 359.921875 179.996094 359.921875 C 279.40625 359.921875 359.984375 279.339844 359.984375 179.9375 C 359.984375 80.527344 279.40625 -0.0585938 179.996094 -0.0585938 " fill-opacity="1" fill-rule="nonzero"/></svg>