<svg xmlns="http://www.w3.org/2000/svg" xmlns:xlink="http://www.w3.org/1999/xlink" width="100" zoomAndPan="magnify" viewBox="0 0 75 74.999997" height="100" preserveAspectRatio="xMidYMid meet" version="1.0"><defs><clipPath id="9b34708f0b"><path d="M 47 12.011719 L 63.558594 12.011719 L 63.558594 63 L 47 63 Z M 47 12.011719 " clip-rule="nonzero"/></clipPath></defs><path fill="#2489ca" d="M 13.046875 30.246094 C 13.046875 30.246094 11.808594 29.359375 13.292969 28.175781 L 16.753906 25.105469 C 16.753906 25.105469 17.742188 24.070312 18.789062 24.972656 L 50.707031 48.980469 L 50.707031 60.492188 C 50.707031 60.492188 50.691406 62.300781 48.355469 62.097656 Z M 13.046875 30.246094 " fill-opacity="1" fill-rule="nonzero"/><path fill="#1070b3" d="M 21.273438 37.667969 L 13.046875 45.097656 C 13.046875 45.097656 12.199219 45.722656 13.046875 46.839844 L 16.867188 50.289062 C 16.867188 50.289062 17.773438 51.257812 19.113281 50.15625 L 27.835938 43.585938 Z M 21.273438 37.667969 " fill-opacity="1" fill-rule="nonzero"/><path fill="#0877b9" d="M 35.71875 37.726562 L 50.804688 26.28125 L 50.707031 14.832031 C 50.707031 14.832031 50.0625 12.332031 47.914062 13.632812 L 27.835938 31.789062 Z M 35.71875 37.726562 " fill-opacity="1" fill-rule="nonzero"/><g clip-path="url(#9b34708f0b)"><path fill="#3c99d4" d="M 48.355469 62.113281 C 49.234375 63.007812 50.296875 62.714844 50.296875 62.714844 L 62.054688 56.957031 C 63.558594 55.9375 63.347656 54.675781 63.347656 54.675781 L 63.347656 20.300781 C 63.347656 18.789062 61.789062 18.269531 61.789062 18.269531 L 51.597656 13.386719 C 49.371094 12.019531 47.914062 13.632812 47.914062 13.632812 C 47.914062 13.632812 49.789062 12.292969 50.707031 14.832031 L 50.707031 60.28125 C 50.707031 60.59375 50.640625 60.902344 50.507812 61.179688 C 50.238281 61.714844 49.65625 62.21875 48.257812 62.007812 Z M 48.355469 62.113281 " fill-opacity="1" fill-rule="nonzero"/></g></svg>